<svg xmlns="http://www.w3.org/2000/svg" viewBox="0 0 505.499 505.499">
  <path d="M471.497 234.466l-92.082-53.135-75.733 73.208 69.215 66.907 98.6-56.91c5.43-3.133 8.677-8.756 8.677-15.03 0-6.275-3.247-11.898-8.677-15.04z" fill="#FF7058"/>
  <path d="M363.785 172.3l-262.236-151.45L0 162.48l250.93 242.545L363.785 172.3z" fill="#FFDB14"/>
  <path d="M373.005 274.546L262.187 384.924 452.982 505.5c5.752 3.135 9.665 2.004 9.665-3.134V278.317l-89.642-3.771z" fill="#00C37A"/>
  <path d="M0 162.48v270.132c0 7.645 3.679 10.76 9.43 7.625l241.5-234.937L0 162.48z" fill="#00AAF0"/>
</svg>