<svg xmlns="http://www.w3.org/2000/svg" viewBox="0 0 602 146">
  <path d="M238.085 35.255c-10.861 0-19.072 4.228-24.63 12.684v-9.75h-21.884v98.766h22.751V84.963c0-11.728 6.173-18.768 17.034-18.768 9.124 0 14.682 5.736 14.682 15.185v55.575h22.751V75.213c0-24.412-13.815-39.958-30.704-39.958zm-67.64 33.554c0-19.635-14.682-33.554-35.394-33.554-20.713 0-35.395 13.919-35.395 33.554 0 19.636 14.682 33.554 35.395 33.554 20.712 0 35.394-13.918 35.394-33.554zm-22.751 0c0 8.145-4.567 14.318-12.643 14.318-8.075 0-12.643-6.173-12.643-14.318 0-8.144 4.568-14.317 12.643-14.317 8.076 0 12.643 6.173 12.643 14.317zm-87.485-33.554c-10.86 0-19.071 4.228-24.63 12.684v-9.75h-21.883v98.766h22.75V84.963c0-11.728 6.173-18.768 17.034-18.768 9.124 0 14.682 5.736 14.682 15.185v55.575h22.751V75.213c0-24.412-13.815-39.958-30.704-39.958zm242.207 0c-20.712 0-35.394 13.919-35.394 33.554 0 19.636 14.682 33.554 35.394 33.554 20.713 0 35.395-13.918 35.395-33.554 0-19.635-14.682-33.554-35.395-33.554zm0 48.535c-8.075 0-12.643-6.173-12.643-14.318 0-8.144 4.568-14.317 12.643-14.317 8.076 0 12.644 6.173 12.644 14.317 0 8.145-4.568 14.318-12.644 14.318z" fill="#00A8E1"/>
  <path d="M602 73.08c0-20.93-16.97-37.9-37.9-37.9H338.42c-20.93 0-37.9 16.97-37.9 37.9v37.9c0 20.93 16.97 37.9 37.9 37.9h225.68c20.93 0 37.9-16.97 37.9-37.9v-37.9z" fill="#FF9900"/>
  <path d="M451.89 73.08l-37.9 37.9h-75.57c-10.47 0-18.95-8.48-18.95-18.95v-37.9c0-10.47 8.48-18.95 18.95-18.95h75.57l37.9 37.9z" fill="#00A8E1"/>
</svg>